<?xml version="1.0" encoding="UTF-8"?><svg id="a" xmlns="http://www.w3.org/2000/svg" viewBox="0 0 100 65.21"><defs><style>.b{fill:#fff;}.c{fill:red;stroke:#000;stroke-miterlimit:10;}</style></defs><path class="b" d="M48.85,50.49s.05,.34,.1,.85c.05,.51,.1,1.18,.1,1.79,0,.43-.03,.84-.08,1.09l-.06,.22,.19,.09-.16-.13-.03,.04,.19,.09-.16-.13,.44,.36-.29-.49-.15,.13,.44,.36-.29-.49c-.2,.13-.84,.31-1.49,.31-.58,0-1.18-.12-1.63-.34-.36-.15-1.3-1.1-2.05-2.03-.39-.47-.75-.94-1.05-1.33-.31-.4-.53-.68-.75-.91-.4-.36-.65-.35-.89-.4l-.74-.05c-.91,0-2.15,.13-3.34,.26-1.18,.13-2.33,.25-2.83,.25h-.16l-.24-.03c-.42,0-.69,.13-.97,.25-.94,.45-2.01,1.32-3.07,2.09-.52,.38-1.02,.73-1.43,.97l-.5,.25-.14,.04h0c-1.15,0-4.06,.29-6.06,.29-.65,0-1.21-.04-1.44-.09-.57-.12-1.68-.61-2.57-1.07-.89-.46-1.6-.87-1.6-.87l-.83-.49-7.59,10.92,1.7,1.18,7.04-10.13-.85-.59-.53,.89s.75,.44,1.71,.93c.96,.49,2.09,1.02,3.06,1.25,.54,.12,1.16,.14,1.89,.14,2.14,0,5.15-.29,6.06-.29,.78-.03,1.29-.36,1.91-.72,.9-.56,1.88-1.33,2.74-1.95,.43-.31,.82-.58,1.12-.75l.35-.18,.06-.02-.07-.28v.29h.07l-.07-.29v-.31l-.1,.59h.1v-.59l-.1,.59,.5,.03c.74,0,1.86-.13,3.05-.26,1.18-.13,2.4-.25,3.12-.25l.42,.02h0l.24-.69-.51,.51,.27,.18,.24-.69-.51,.51s.29,.34,.58,.72c.45,.58,1.07,1.38,1.72,2.12,.67,.74,1.31,1.41,2.08,1.82,.83,.41,1.72,.56,2.56,.56,.97,0,1.84-.18,2.56-.6,.66-.46,.73-.98,.85-1.43,.09-.47,.12-.97,.12-1.49,0-1.42-.21-2.9-.21-2.92l-2.05,.29h0Z"/><path class="b" d="M2.13,52.91s2.89-2.03,6.09-4.49c1.6-1.23,3.28-2.57,4.72-3.84,1.45-1.27,2.64-2.43,3.35-3.43,1.18-1.68,2.94-3.96,4.43-5.97,.75-1.01,1.42-1.94,1.94-2.73,.26-.39,.48-.75,.65-1.07,.17-.33,.31-.59,.37-.99,.05-.38,.05-.9,.05-1.74,0-2.2-.08-6.08-.08-9.18,0-1.19,.01-2.26,.04-3.06,.02-.4,.04-.73,.06-.97l.03-.26v-.04l-.46-.13,.44,.2,.03-.07-.47-.13,.44,.2,.29-.41,.18-.05,.4,.1,.15,.08,.03,.02,.13-.2-.14,.2h0l.13-.2-.14,.2,1.19-1.7c-.09-.04-.72-.54-1.76-.56-.41,0-.89,.1-1.32,.39-.43,.29-.79,.73-1.04,1.28-.15,.36-.15,.55-.19,.87-.09,.9-.11,2.43-.11,4.24,0,3.13,.08,7.02,.08,9.18,0,.78-.02,1.41-.03,1.45l.18,.03-.17-.05v.03l.17,.03-.17-.05c-.02,.1-.35,.73-.84,1.45-1.49,2.22-4.42,5.9-6.2,8.44-.49,.71-1.63,1.85-3.02,3.06-2.09,1.83-4.76,3.88-6.89,5.47-2.14,1.59-3.74,2.72-3.74,2.72l1.19,1.7h0Z"/><path class="b" d="M27.81,28.8s-.18-2.44-.37-5.69c-.18-3.25-.37-7.31-.37-10.51,0-1.42,.04-2.68,.12-3.59,.04-.46,.1-.83,.15-1.07l.07-.23h0l-.44-.27,.36,.36,.08-.1-.44-.27,.36,.36c.59-.58,1.05-.64,1.37-.65l.26,.03h.05l.1-.32-.12,.33h.02l.1-.33-.12,.33,.36-.97-.46,.93h0l.33,.25,.13,.2V25.79l2.07,.1s.51-5.1,1.16-10.35c.32-2.62,.67-5.28,1.01-7.34,.17-1.03,.33-1.91,.48-2.55l.2-.74,.06-.17h0l-.47-.28,.41,.35,.06-.08-.47-.28,.41,.35c.48-.54,.77-.53,.91-.54h.08l.06-.32-.11,.32h.04l.06-.32-.11,.32,.24,.08,.25-.04h.09l.45,.1c.06,.07,.16,.06,.19,.6l-.03,.37c-.17,1.26-1.07,7.24-1.93,12.88-.86,5.65-1.67,10.96-1.67,10.97l-.38,2.48,2.02-1.49s1.63-1.2,3.34-2.42c.85-.61,1.73-1.22,2.42-1.69,.35-.23,.65-.43,.87-.56l.26-.15,.05-.02-.21-.47,.12,.5,.08-.03-.21-.47,.12,.5c.41-.11,.57-.18,.82-.18,.32,0,.98,.12,2.28,1.04,1.24,.88,2.3,1.53,2.97,2.15,.67,.64,.98,1.13,1.06,2.06,.17,2.42,.35,4.14,.35,4.15l1.03-.1-1.04,.05,.17,3.78,2.07-.09-.17-3.78v-.06s-.17-1.7-.35-4.09c-.09-1.48-.81-2.62-1.73-3.44-.92-.84-2.01-1.48-3.17-2.31-1.47-1.06-2.56-1.43-3.48-1.43-.66,0-1.15,.2-1.32,.24-.38,.11-.5,.22-.79,.38-1.81,1.1-6.77,4.76-6.78,4.77l.62,.83,1.02,.16s3.26-21.28,3.61-23.89l.04-.65c.02-1.03-.45-1.9-1.1-2.31-.63-.42-1.24-.46-1.61-.46l-.41,.03,.16,1.02,.33-.98c-.08-.03-.32-.1-.69-.1-.63-.02-1.66,.28-2.49,1.27l-.4,.79c-.32,.97-.62,2.68-.95,4.85-.97,6.46-1.99,16.56-1.99,16.57l1.03,.1h1.04V7.58c-.01-.87-.49-1.44-.85-1.77-.37-.34-.7-.5-.75-.53l-.05-.02-.05-.02c-.08-.03-.45-.16-1.01-.16-.74-.01-1.86,.27-2.83,1.26-.38,.41-.44,.74-.54,1.13-.26,1.14-.32,2.93-.33,5.13,0,6.55,.74,16.35,.74,16.36l2.07-.16h0Z"/><path class="b" d="M49.2,50.2s-.21,1.5-.21,2.92c0,.51,.03,1.01,.12,1.49,.12,.46,.19,.98,.85,1.43,.72,.42,1.59,.59,2.56,.6,.84,0,1.73-.15,2.56-.56,1.02-.54,1.88-1.57,2.72-2.57,.41-.5,.79-.98,1.09-1.37,.29-.38,.55-.7,.58-.72l-.51-.51,.24,.69,.27-.18-.51-.51,.24,.69-.09-.26,.07,.26h.02l-.09-.26,.07,.26,.45-.03c.71,0,1.94,.12,3.12,.25,1.19,.13,2.31,.26,3.05,.26l.5-.03-.1-.59v.6h.1l-.1-.6v.23l-.06,.36h.06v-.36l-.06,.36,.06,.02c.41,.14,1.6,1.02,2.7,1.84,.56,.41,1.13,.82,1.67,1.14,.56,.31,1.03,.59,1.74,.62,.91,0,3.93,.29,6.06,.29,.73,0,1.35-.03,1.89-.14,.97-.22,2.1-.76,3.06-1.25,.95-.49,1.7-.92,1.71-.93l-.53-.89-.85,.59,7.04,10.13,1.7-1.18-7.59-10.92-.83,.49s-.71,.41-1.6,.87c-.88,.46-1.99,.95-2.57,1.07-.23,.06-.79,.1-1.44,.09-2,0-4.91-.29-6.06-.29v.13l.02-.13h-.02v.13l.02-.13s-.49-.18-.98-.5c-.75-.48-1.69-1.21-2.55-1.83-.43-.31-.85-.6-1.25-.83-.41-.22-.75-.43-1.35-.45l-.24,.02h-.16c-.5,0-1.65-.11-2.83-.24-1.19-.13-2.43-.26-3.34-.26l-.74,.05c-.24,.06-.49,.05-.89,.4-.23,.23-.44,.52-.75,.91-.46,.58-1.05,1.35-1.64,2.02-.57,.66-1.21,1.23-1.46,1.34-.45,.23-1.05,.35-1.63,.34-.66,0-1.29-.17-1.49-.31l-.29,.49,.44-.36-.15-.13-.29,.49,.44-.36-.18,.15,.21-.11-.03-.04-.18,.15,.21-.11s-.16-.66-.14-1.31c0-.61,.05-1.28,.1-1.79,.05-.51,.1-.85,.1-.85l-2.05-.29h0Z"/><path class="b" d="M99.17,51.22s-2.86-2.01-6.02-4.44c-1.58-1.22-3.23-2.54-4.62-3.75-1.39-1.21-2.53-2.35-3.02-3.06-1.23-1.75-2.99-4.03-4.46-6.01-.74-.99-1.4-1.91-1.87-2.63-.24-.36-.43-.67-.55-.91l-.13-.27-.02-.06-.17,.05,.18-.03v-.03l-.18,.05,.18-.03s-.03-.67-.03-1.45c0-2.16,.08-6.05,.08-9.18,0-1.2-.01-2.29-.04-3.14-.02-.43-.04-.79-.07-1.1-.04-.32-.04-.51-.19-.87-.25-.55-.6-.99-1.04-1.28-.43-.29-.92-.4-1.32-.39-1.04,.02-1.67,.52-1.76,.56l1.19,1.7-.14-.2,.13,.2h0l-.14-.2,.13,.2,.58-.19,.18,.05,.29,.41,.44-.2-.47,.13,.03,.07,.44-.2-.47,.13s.09,.65,.11,1.42c.03,.78,.04,1.8,.04,2.91,0,3.1-.08,6.98-.08,9.18,0,.84,0,1.37,.05,1.74,.07,.4,.2,.66,.37,.99,.59,1.1,1.81,2.75,3.16,4.56,1.35,1.8,2.83,3.73,3.86,5.2,.71,1.01,1.91,2.16,3.35,3.43,4.32,3.78,10.8,8.32,10.81,8.33l1.19-1.7h0Z"/><path class="b" d="M74.36,28.96s.74-9.81,.74-16.36c0-1.46-.04-2.76-.13-3.78-.05-.51-.11-.96-.2-1.35-.11-.39-.17-.72-.54-1.13-.98-.99-2.09-1.27-2.83-1.26-.56,0-.93,.13-1.01,.16l-.05,.02-.05,.02c-.05,.03-.38,.19-.75,.53-.36,.33-.84,.9-.85,1.77V25.79h1.04l1.03-.1s-.52-5.12-1.16-10.39c-.32-2.64-.68-5.31-1.02-7.42-.17-1.06-.34-1.97-.5-2.68-.08-.36-.16-.66-.25-.93l-.4-.79c-.83-.99-1.86-1.28-2.49-1.27-.36,0-.61,.07-.69,.1l.33,.98,.16-1.02-.41-.03c-.37,0-.99,.05-1.61,.46-.64,.41-1.12,1.29-1.1,2.31l.05,.65c.35,2.61,3.61,23.89,3.61,23.89l1.02-.16,.62-.83s-1.64-1.21-3.36-2.44c-.86-.62-1.75-1.24-2.47-1.72-.36-.24-.68-.45-.95-.61-.29-.17-.42-.27-.79-.38-.17-.04-.66-.24-1.32-.24-.92,0-2.01,.38-3.48,1.43-1.16,.83-2.25,1.48-3.17,2.31-.92,.82-1.64,1.96-1.73,3.44-.17,2.39-.34,4.09-.34,4.09v.03l-.18,3.81,2.07,.09,.17-3.78-1.04-.05,1.03,.1s.17-1.73,.35-4.15c.08-.93,.39-1.42,1.06-2.06,.67-.62,1.73-1.27,2.97-2.15,1.3-.92,1.95-1.05,2.28-1.04,.25,0,.41,.07,.82,.18l.12-.5-.21,.47,.08,.03,.12-.5-.21,.47c.07,.02,.69,.4,1.37,.87,2.12,1.43,5.55,3.97,5.56,3.97l2.02,1.49-.38-2.48s-.82-5.32-1.67-10.97c-.86-5.64-1.76-11.62-1.93-12.88l-.03-.37c.02-.54,.12-.53,.19-.6l.45-.1h.09l.25,.04,.24-.08-.11-.32,.06,.33h.05l-.11-.33,.06,.33h.08c.15,0,.43,0,.91,.54l.41-.35-.47,.28,.06,.08,.41-.35-.47,.28h0c.06,.11,.22,.65,.36,1.36,.52,2.52,1.17,7.5,1.67,11.81,.5,4.31,.87,7.97,.87,7.98l2.07-.1V7.58l.02-.06,.27-.27,.14-.09,.03-.02-.09-.16,.08,.17h0l-.09-.17,.08,.17-.46-.93,.36,.97-.12-.33,.1,.34h.02l-.12-.34,.1,.34,.31-.04c.31,.01,.77,.07,1.37,.65l.36-.36-.44,.27,.08,.1,.36-.36-.44,.27h0c.06,.12,.2,.79,.25,1.65,.06,.88,.09,2,.09,3.25,0,3.2-.18,7.26-.37,10.51-.18,3.25-.37,5.68-.37,5.69l2.07,.16h0Z"/><path class="c" d="M54.26,30.03c-2.5,1-4.07,4.14-4.4,4.86-.73-1.41-2.32-4.04-4.36-4.86-2.83-1.14-7.99,.28-8.5,5.97-.26,2.84,.77,5.97,3.35,8.52,4.07,4.04,9.53,7.96,9.53,7.96,0,0,5.46-3.91,9.53-7.96,2.58-2.56,3.61-5.68,3.35-8.52-.52-5.68-5.67-7.1-8.5-5.97Z"/></svg>