<?xml version="1.0" encoding="UTF-8"?><svg id="a" xmlns="http://www.w3.org/2000/svg" xmlns:xlink="http://www.w3.org/1999/xlink" viewBox="0 0 343.26 212.46"><defs><style>.i{fill:url(#e);}.j{fill:url(#d);}.k{fill:url(#g);}.l{fill:url(#f);}.m{fill:url(#h);}.n{fill:url(#c);}.o{fill:url(#b);}</style><linearGradient id="b" x1="0" y1="105.72" x2="89.05" y2="105.72" gradientTransform="matrix(1, 0, 0, 1, 0, 0)" gradientUnits="userSpaceOnUse"><stop offset="0" stop-color="red"/><stop offset="1" stop-color="#800e0b"/></linearGradient><linearGradient id="c" x1="254.2" y1="105.72" x2="343.26" y2="105.72" xlink:href="#b"/><linearGradient id="d" x1="170.04" y1="56.79" x2="258.09" y2="56.79" xlink:href="#b"/><linearGradient id="e" x1="170.18" y1="190.07" x2="318.05" y2="190.07" xlink:href="#b"/><linearGradient id="f" x1="85.16" y1="56.56" x2="173.21" y2="56.56" xlink:href="#b"/><linearGradient id="g" x1="25.21" y1="190.07" x2="173.08" y2="190.07" xlink:href="#b"/><linearGradient id="h" x1="124.65" y1="135.24" x2="219.29" y2="135.24" xlink:href="#b"/></defs><g><path class="o" d="M2.07,174.79s8.79-6.05,18.15-12.76c4.68-3.36,9.5-6.88,13.46-9.91,1.98-1.51,3.74-2.9,5.16-4.1,.71-.6,1.34-1.14,1.88-1.64,.54-.5,.98-.94,1.34-1.35,1.16-1.36,3.05-3.67,5.32-6.51,3.41-4.26,7.66-9.68,11.49-14.68,3.83-5.01,7.23-9.57,8.99-12.2,4.56-6.84,8.35-13.28,8.36-13.3l.26-.44v-.51s-.02-.71-.03-1.97c-.04-3.79-.12-12.52-.12-21.78,0-6.71,.04-13.71,.18-19.27,.07-2.78,.16-5.21,.27-7.05,.06-.92,.12-1.69,.19-2.28,.03-.29,.07-.53,.1-.71,.03-.18,.06-.3,.07-.3,.11-.33,.32-.77,.62-1.21,.45-.67,1.08-1.34,1.77-1.8,.69-.47,1.39-.71,2.04-.71,.57,0,1.15,.16,1.88,.68,.73,.52,1.58,1.46,2.45,2.99l3.18-1.8c-1.05-1.86-2.21-3.23-3.48-4.15-1.27-.93-2.68-1.38-4.02-1.37-1.04,0-2.02,.26-2.88,.65-1.3,.6-2.36,1.5-3.2,2.48-.84,.98-1.46,2.03-1.82,3.09-.09,.27-.14,.52-.2,.81-.18,1.04-.3,2.55-.41,4.54-.31,5.94-.39,15.95-.39,25.42,0,12.38,.15,23.8,.15,23.81l1.83-.02-1.57-.93s-.06,.1-.17,.28c-.77,1.3-4.15,6.94-8.08,12.84-1.09,1.64-2.97,4.23-5.23,7.23-3.38,4.51-7.62,9.99-11.44,14.83-3.81,4.83-7.21,9.05-8.87,10.98-.21,.24-.57,.61-1.04,1.05-1.79,1.66-5.13,4.29-9.07,7.25-5.91,4.44-13.21,9.65-19.02,13.75-2.91,2.05-5.44,3.82-7.25,5.07-.9,.63-1.63,1.13-2.12,1.47-.5,.34-.77,.53-.77,.53l2.07,3.01h0Z"/><path class="n" d="M343.26,171.78s-.55-.38-1.51-1.05c-3.38-2.34-11.91-8.28-20.08-14.2-4.08-2.96-8.07-5.91-11.28-8.4-1.6-1.24-3-2.37-4.11-3.32-1.1-.94-1.93-1.72-2.3-2.15-1.1-1.29-2.99-3.59-5.24-6.42-3.39-4.23-7.63-9.64-11.44-14.62-3.81-4.97-7.21-9.54-8.85-12-2.25-3.37-4.31-6.66-5.81-9.1-.75-1.22-1.36-2.23-1.78-2.93-.21-.35-.37-.63-.49-.81-.11-.19-.17-.28-.17-.28l-1.57,.93,1.83,.02s.15-11.43,.15-23.81c0-6.73-.04-13.74-.18-19.36-.07-2.81-.16-5.27-.28-7.19-.06-.96-.13-1.79-.21-2.47-.04-.34-.08-.65-.13-.93-.05-.28-.11-.53-.2-.81h0c-.24-.71-.6-1.41-1.05-2.09-.69-1.02-1.6-2.01-2.74-2.79-1.13-.77-2.53-1.34-4.1-1.35-1.34,0-2.75,.45-4.02,1.37-1.28,.93-2.43,2.29-3.48,4.15l3.18,1.8c.87-1.53,1.72-2.47,2.45-2.99,.73-.52,1.32-.67,1.88-.68,.44,0,.89,.11,1.35,.32,.69,.31,1.39,.88,1.95,1.54,.56,.64,.97,1.38,1.12,1.87h0s.03,.12,.07,.3c.13,.69,.26,2.17,.36,4.08,.3,5.79,.39,15.79,.39,25.23,0,6.17-.04,12.11-.07,16.51-.02,2.2-.04,4.01-.05,5.27-.01,1.26-.02,1.97-.02,1.97v.51l.25,.44s3.8,6.45,8.36,13.3c1.17,1.76,3.07,4.36,5.34,7.4,3.41,4.55,7.66,10.04,11.49,14.9,3.83,4.86,7.23,9.07,8.96,11.1,.36,.42,.8,.86,1.34,1.35,2,1.85,5.37,4.49,9.35,7.49,11.93,8.96,29.28,20.91,29.29,20.91l2.07-3.01h0Z"/><g><path class="j" d="M170.18,113.58l3.65-.1v-1.92c-.03-.34-.14-1.91-.14-4.12,0-1.97,.08-4.43,.37-6.97,.28-2.53,.77-5.14,1.55-7.34,.18-.53,.6-1.25,1.23-2.06,1.1-1.41,2.82-3.05,4.81-4.66,2.98-2.42,6.56-4.82,9.65-6.64,1.54-.91,2.96-1.69,4.1-2.25,.57-.28,1.07-.51,1.47-.67,.4-.16,.71-.26,.81-.28,.24-.05,.47-.08,.71-.08,.48,0,.98,.1,1.5,.29,.78,.28,1.59,.76,2.34,1.26,.37,.25,.74,.5,1.09,.74,.35,.23,.68,.45,1.07,.65h0s.2,.12,.44,.28c.95,.63,2.95,2.05,5.37,3.79,3.64,2.62,8.26,6,11.97,8.72,1.86,1.36,3.48,2.56,4.65,3.41s1.86,1.37,1.86,1.37l3.69,2.72-.8-4.51s-.22-1.26-.62-3.46c-1.37-7.72-4.8-27.05-7.89-44.83-1.54-8.89-3-17.39-4.07-23.84-.54-3.23-.97-5.95-1.28-7.94-.15-1-.27-1.81-.35-2.41-.04-.3-.07-.54-.09-.72l-.02-.21v-.05h0c0-1.63,.12-3.54,.81-4.97,.35-.72,.8-1.33,1.49-1.85,.68-.51,1.62-.95,2.99-1.19,.33-.06,.63-.08,.91-.08,.98,0,1.74,.29,2.45,.76,1.06,.71,1.92,1.92,2.47,2.98,.28,.53,.48,1.01,.6,1.34,.06,.17,.11,.3,.14,.39l9.42,71.93,3.64-.23s0-.95,.02-2.61c.04-5.83,.15-20.45,.34-33.89,.09-6.72,.2-13.15,.33-18.03,.06-2.44,.13-4.5,.21-6,.04-.75,.07-1.36,.11-1.8,.02-.22,.04-.39,.05-.51l.02-.11c.29-1.04,.79-2.26,1.5-3.11,.36-.43,.76-.77,1.22-1,.47-.23,1-.38,1.74-.39,.38,0,.82,.04,1.32,.15,1.09,.24,1.84,.61,2.43,1.08,.44,.35,.8,.77,1.12,1.28,.47,.76,.84,1.74,1.12,2.88,.29,1.14,.49,2.44,.7,3.82,.01,.08,.04,.39,.06,.81,.02,.42,.02,.97,.02,1.62,0,3.25-.19,9.04-.49,15.83-.44,10.2-1.1,22.71-1.64,32.67-.27,4.98-.52,9.32-.7,12.42-.18,3.1-.29,4.94-.29,4.95l3.65,.22s.78-13.18,1.56-28.03c.39-7.42,.78-15.26,1.07-22.08,.29-6.82,.49-12.61,.49-15.99,0-.68,0-1.26-.03-1.75-.02-.49-.04-.87-.1-1.23-.39-2.46-.75-4.97-1.87-7.24-.56-1.13-1.34-2.19-2.4-3.04-1.06-.85-2.39-1.47-3.94-1.8-.73-.16-1.42-.23-2.08-.23-1.27,0-2.42,.29-3.4,.78-1.47,.75-2.48,1.91-3.18,3.07-.7,1.16-1.12,2.35-1.4,3.32-.08,.29-.1,.46-.13,.7-.05,.45-.1,1.04-.14,1.8-.16,2.85-.29,8.08-.41,14.36-.12,6.35-.22,13.75-.29,20.79l-6.05-46.21-.04-.13c-.04-.11-.56-1.98-1.92-3.98-.68-1-1.58-2.04-2.79-2.86C226.73,.57,225.19,0,223.43,0c-.5,0-1.02,.05-1.55,.14-1.84,.32-3.36,.97-4.55,1.87-.89,.67-1.59,1.48-2.12,2.33-.79,1.28-1.18,2.65-1.4,3.93-.21,1.28-.24,2.48-.24,3.48,0,.25,.02,.45,.05,.73,.12,1.06,.42,3.08,.87,5.91,2.61,16.38,10.17,59,12.65,72.96-2.18-1.6-5.08-3.73-8.02-5.88-2.97-2.17-6-4.37-8.38-6.07-1.19-.85-2.22-1.58-3.01-2.13-.39-.27-.73-.5-1-.68-.14-.09-.26-.17-.37-.24-.11-.07-.21-.13-.35-.2-.15-.07-.54-.32-1-.64-.71-.49-1.63-1.13-2.73-1.68-1.1-.54-2.41-1-3.91-1.01-.49,0-.99,.05-1.5,.16-.68,.16-1.37,.44-2.25,.84-1.52,.7-3.49,1.76-5.67,3.07-3.26,1.96-6.95,4.46-10.07,7.04-1.56,1.3-2.98,2.61-4.14,3.93-1.16,1.32-2.08,2.62-2.59,4.03-.91,2.59-1.43,5.43-1.74,8.15-.3,2.72-.39,5.31-.39,7.38,0,2.38,.11,4.05,.14,4.4v1.74Z"/><path class="i" d="M318.05,210.35l-25.58-36.21-1.49,1.04-.08,.05c-.4,.27-2.3,1.57-4.54,2.86-1.12,.65-2.33,1.29-3.46,1.8-1.12,.51-2.19,.89-2.91,1.02-4.05,.74-10.07,1.48-14.02,1.48-.91,0-2.57-.11-4.51-.31-2.93-.3-6.56-.78-9.75-1.32-1.59-.27-3.08-.56-4.29-.84-1.21-.28-2.18-.57-2.6-.76-.32-.14-.84-.42-1.46-.78-2.2-1.28-5.65-3.6-8.52-5.59-1.44-.99-2.73-1.9-3.66-2.57-.47-.33-.84-.6-1.1-.79-.26-.19-.4-.29-.4-.29l-.43-.31-.53-.03s-4.73-.28-10.49-.57c-5.77-.28-12.57-.57-16.79-.57h-1.01l-.54,.85c-5.04,7.97-9.17,12.33-12.48,14.65-1.66,1.16-3.11,1.82-4.42,2.21-1.31,.38-2.49,.49-3.64,.49-.66,0-1.3-.04-1.95-.08-1.06-.08-1.73-.34-2.2-.64-.35-.23-.59-.48-.79-.75-.29-.4-.45-.86-.53-1.21-.04-.17-.06-.32-.07-.41v-.09h0v-10.59l-1.86,1.18-1.79-1.54v10.97c0,.17,0,1.58,.89,3.2,.45,.81,1.15,1.66,2.17,2.31,1.02,.66,2.33,1.1,3.91,1.21,.68,.05,1.41,.09,2.21,.09,1.39,0,2.96-.14,4.66-.64,2.56-.75,5.39-2.3,8.51-5.17,2.97-2.74,6.23-6.7,9.9-12.38,4.13,.04,10.32,.3,15.62,.56,2.87,.14,5.49,.28,7.38,.39,1.15,.06,2.03,.12,2.55,.15,.95,.68,3.37,2.4,6.07,4.24,1.73,1.19,3.57,2.42,5.21,3.47,.82,.52,1.59,1,2.27,1.4,.69,.4,1.28,.72,1.82,.96,.57,.25,1.23,.46,2.01,.67,2.7,.73,6.85,1.43,10.85,1.97,2,.27,3.95,.5,5.64,.66,1.7,.16,3.12,.25,4.14,.26,4.36,0,10.42-.77,14.67-1.54,1.3-.24,2.65-.77,4.02-1.4,2.05-.96,4.13-2.18,5.71-3.17,.43-.27,.83-.52,1.17-.75l23.5,33.27,2.98-2.11Z"/></g><g><path class="l" d="M88.28,91.11l3.65-.22s-.05-.82-.13-2.29c-.3-5.13-1.04-18.15-1.72-31.33-.67-13.17-1.27-26.55-1.27-32.26,0-.65,0-1.2,.02-1.62,.01-.42,.04-.73,.06-.81,.37-2.45,.76-4.65,1.53-6.16,.38-.76,.83-1.35,1.42-1.82,.59-.47,1.34-.84,2.43-1.08,.5-.11,.94-.15,1.32-.15,.73,0,1.27,.15,1.74,.39,.69,.35,1.25,.94,1.72,1.71,.46,.75,.78,1.63,1,2.41,.02,.13,.07,.6,.11,1.23,.16,2.44,.3,7.57,.42,13.82,.18,9.39,.32,21.36,.41,30.99,.05,4.81,.08,9.04,.1,12.06,.02,3.02,.03,4.84,.03,4.84l3.64,.23L114.16,9.12c.13-.39,.62-1.73,1.48-2.95,.5-.7,1.11-1.35,1.79-1.8,.69-.45,1.43-.72,2.39-.72,.28,0,.58,.03,.91,.08,1.37,.24,2.3,.68,2.99,1.19,.51,.39,.89,.83,1.2,1.33,.46,.75,.75,1.65,.91,2.61,.16,.96,.19,1.96,.19,2.88,0,.02-.01,.2-.04,.43-.11,.96-.42,3.04-.87,5.87-1.59,9.92-4.94,29.22-7.89,46.03-1.48,8.41-2.85,16.19-3.86,21.87-.5,2.84-.92,5.16-1.2,6.76-.29,1.61-.45,2.5-.45,2.5l-.8,4.51,3.69-2.72s.36-.26,.99-.73c2.21-1.63,7.77-5.71,12.93-9.47,2.58-1.88,5.06-3.68,6.98-5.04,.96-.68,1.77-1.26,2.38-1.67,.3-.21,.55-.38,.74-.5,.09-.06,.17-.11,.22-.14l.05-.03h0c.51-.27,.94-.57,1.42-.9,.71-.49,1.49-1.03,2.28-1.42,.79-.39,1.57-.63,2.29-.63,.24,0,.47,.02,.71,.08,.17,.03,.77,.24,1.52,.59,1.33,.61,3.23,1.63,5.31,2.88,3.13,1.88,6.7,4.3,9.63,6.73,1.46,1.21,2.76,2.42,3.74,3.54,.99,1.11,1.64,2.14,1.88,2.83,.78,2.21,1.27,4.81,1.55,7.34,.28,2.53,.37,5,.37,6.97,0,1.26-.03,2.32-.07,3.05-.02,.37-.03,.66-.05,.85,0,.1-.01,.17-.01,.22v1.57l3.64-.1v-1.19c.02-.34,.14-2.01,.14-4.4,0-2.07-.08-4.66-.39-7.38-.31-2.72-.83-5.56-1.74-8.15-.38-1.08-1.01-2.08-1.8-3.09-1.38-1.76-3.26-3.52-5.38-5.24-3.17-2.58-6.87-5.04-10.09-6.95-1.61-.95-3.1-1.77-4.35-2.38-.63-.31-1.2-.57-1.71-.78-.51-.21-.95-.37-1.4-.47-.51-.11-1.01-.16-1.5-.16-.99,0-1.91,.21-2.73,.5-1.24,.45-2.28,1.09-3.13,1.65-.42,.28-.8,.55-1.11,.76-.31,.21-.56,.36-.67,.42-.14,.07-.23,.13-.35,.2-.42,.26-1.05,.69-1.92,1.3-3.01,2.11-8.63,6.2-13.52,9.78-1.98,1.45-3.83,2.81-5.34,3.92,1.26-7.07,3.81-21.48,6.37-36.13,1.79-10.26,3.59-20.63,4.93-28.65,.67-4.01,1.23-7.43,1.63-9.97,.2-1.27,.35-2.31,.46-3.11,.05-.4,.1-.73,.13-1.01,.03-.28,.05-.48,.05-.73,0-1.77-.07-4.2-1.17-6.54-.55-1.17-1.39-2.3-2.58-3.2-1.19-.9-2.71-1.55-4.55-1.87C120.84,.05,120.33,0,119.83,0c-1.76,0-3.3,.57-4.5,1.39-1.81,1.24-2.93,2.94-3.66,4.31-.72,1.37-1.03,2.45-1.05,2.53l-.04,.13-6.05,46.21c-.02-1.48-.03-2.98-.05-4.48-.09-7.76-.21-15.61-.35-21.69-.07-3.04-.15-5.64-.23-7.57-.04-.97-.09-1.77-.13-2.39-.02-.31-.05-.58-.08-.81-.03-.24-.05-.42-.13-.7-.38-1.29-.99-2.98-2.21-4.47-.61-.74-1.4-1.43-2.37-1.93-.97-.5-2.13-.79-3.4-.78-.66,0-1.36,.08-2.08,.23-1.55,.33-2.88,.95-3.94,1.8-.8,.64-1.44,1.39-1.94,2.21-.76,1.22-1.22,2.56-1.56,3.92-.34,1.36-.56,2.76-.77,4.15-.05,.36-.08,.74-.1,1.23-.02,.49-.03,1.07-.03,1.75,0,3.38,.2,9.17,.49,15.99,.88,20.45,2.63,50.1,2.63,50.11Z"/><path class="k" d="M172.25,172.81l-2.83-2.43v12.34c0,.16-.1,.97-.55,1.62-.22,.33-.52,.64-.97,.9-.46,.26-1.1,.49-2.06,.56-.65,.05-1.29,.08-1.95,.08-1.15,0-2.33-.11-3.64-.49-1.96-.58-4.26-1.78-7.06-4.35-2.8-2.58-6.06-6.53-9.84-12.5l-.54-.85h-1.01c-4.22,0-11.02,.28-16.79,.57-5.77,.28-10.49,.57-10.49,.57l-.53,.03-.43,.31s-.19,.13-.52,.37c-1.17,.84-4.16,2.95-7.21,5.02-1.52,1.03-3.07,2.05-4.39,2.88-.66,.42-1.27,.79-1.8,1.08-.52,.3-.96,.53-1.23,.65-.27,.12-.81,.3-1.48,.49-2.38,.65-6.49,1.35-10.38,1.88-1.95,.26-3.86,.48-5.49,.64-1.63,.15-3,.24-3.79,.24-3.95,0-9.96-.74-14.02-1.48-.77-.14-1.93-.55-3.14-1.12-1.82-.85-3.81-2.01-5.31-2.96-.75-.47-1.39-.89-1.84-1.19-.22-.15-.4-.27-.52-.35l-.13-.09-.04-.03-1.49-1.04-25.58,36.21,2.98,2.11,23.5-33.27c.77,.5,1.77,1.14,2.9,1.8,1.24,.73,2.61,1.48,3.98,2.12,1.37,.64,2.72,1.16,4.02,1.4,4.25,.77,10.31,1.53,14.67,1.54,1.16,0,2.86-.12,4.88-.33,3.02-.31,6.71-.8,10-1.36,1.64-.28,3.19-.58,4.5-.89,1.33-.31,2.4-.61,3.25-.98,.53-.24,1.13-.56,1.82-.96,2.39-1.39,5.85-3.73,8.76-5.74,2.16-1.49,3.99-2.8,4.79-3.37,.52-.03,1.4-.08,2.55-.15,5.39-.3,16.63-.89,23-.95,4.96,7.68,9.16,12.19,12.92,14.83,1.95,1.37,3.78,2.22,5.49,2.72,1.71,.5,3.28,.64,4.66,.64,.79,0,1.53-.04,2.21-.09,1.58-.11,2.89-.55,3.91-1.21,.77-.49,1.36-1.09,1.79-1.7,.65-.92,.96-1.84,1.12-2.53,.16-.7,.16-1.18,.16-1.28v-10.43l-.83,.53Z"/></g></g><path class="m" d="M187.4,98.02l-.64-1.68c-4.88,1.88-8.65,5.59-11.39,9.09-2.74,3.51-4.45,6.84-5.07,8.12l1.62,.78,1.58-.86c-1.32-2.43-3.41-5.9-6.14-9.18-2.74-3.27-6.11-6.38-10.17-7.95-2.31-.88-4.95-1.33-7.71-1.33-5.25,0-10.99,1.63-15.68,5.34-2.34,1.85-4.41,4.23-5.98,7.15-1.57,2.92-2.64,6.38-3.02,10.37-.1,1-.14,2.01-.14,3.03,0,9.25,3.99,19.01,12.5,27.04,7.25,6.85,15.69,13.55,22.32,18.55,6.63,5,11.46,8.3,11.48,8.31l1.01,.69,1.01-.69s4.85-3.31,11.48-8.31c6.64-5,15.07-11.7,22.32-18.55,8.5-8.03,12.5-17.79,12.5-27.04,0-1.02-.05-2.03-.14-3.03-.38-3.99-1.45-7.45-3.02-10.37-2.35-4.38-5.83-7.53-9.67-9.54-3.84-2.02-8.05-2.94-11.99-2.94-2.76,0-5.39,.45-7.71,1.33l.64,1.68,.64,1.68c1.84-.7,4.06-1.1,6.42-1.1,4.51,0,9.5,1.43,13.45,4.56,1.98,1.57,3.71,3.55,5.04,6.03,1.33,2.48,2.26,5.45,2.6,9,.08,.89,.13,1.78,.13,2.69,0,8.21-3.52,17-11.37,24.42-7.09,6.7-15.45,13.34-22.02,18.29-3.29,2.48-6.13,4.53-8.14,5.97-1.01,.72-1.81,1.28-2.36,1.66-.27,.19-.49,.34-.63,.44-.14,.1-.21,.15-.21,.15l1.01,1.49,1.01-1.49s-.07-.05-.21-.15c-2.13-1.46-19.85-13.78-33.15-26.36-7.85-7.43-11.37-16.21-11.37-24.42,0-.9,.04-1.8,.13-2.69,.34-3.56,1.27-6.53,2.6-9,2-3.71,4.9-6.33,8.18-8.06,3.28-1.73,6.93-2.53,10.31-2.53,2.36,0,4.58,.39,6.42,1.1,3.15,1.19,6.19,3.87,8.69,6.89,2.51,3.01,4.5,6.31,5.75,8.6l1.68,3.08,1.52-3.16c.54-1.13,2.16-4.26,4.67-7.47,2.5-3.21,5.9-6.45,9.84-7.94l-.64-1.68Z"/></svg>